<svg width="423" height="158" viewBox="0 0 423 158" fill="none" xmlns="http://www.w3.org/2000/svg">
<path fill-rule="evenodd" clip-rule="evenodd" d="M210.5 0.5C205.667 5 195.2 17.6 192 32C190.833 36.3333 191.3 45 202.5 45H224.5C228.167 44.5 235 41.2 233 32C230.5 20.5 227.5 14.5 216.5 0.5H210.5ZM209.5 9C211 7.33333 214.7 5 217.5 9C218.092 9.84573 218.655 10.5913 219.207 11.3215C221.917 14.908 224.346 18.1218 228.5 31C229.167 33.8333 228.8 39.6 222 40H204.5C201.167 39.8333 195.2 37.8 198 31C199.167 26.3333 203.1 15.4 209.5 9Z" fill="#FCB040"/>
<path d="M192 32L192.483 32.13L192.486 32.1193L192.488 32.1085L192 32ZM210.5 0.5V0H210.303L210.159 0.134053L210.5 0.5ZM224.5 45V45.5H224.534L224.568 45.4954L224.5 45ZM233 32L233.489 31.8938L233 32ZM216.5 0.5L216.893 0.191089L216.743 0H216.5V0.5ZM217.5 9L217.09 9.28673L217.09 9.28673L217.5 9ZM209.5 9L209.854 9.35355L209.863 9.34425L209.872 9.33448L209.5 9ZM219.207 11.3215L218.808 11.6229L219.207 11.3215ZM228.5 31L228.987 30.8855L228.982 30.8658L228.976 30.8465L228.5 31ZM222 40V40.5H222.015L222.029 40.4991L222 40ZM204.5 40L204.475 40.4994L204.488 40.5H204.5V40ZM198 31L198.462 31.1904L198.476 31.1567L198.485 31.1213L198 31ZM192.488 32.1085C195.658 17.8448 206.047 5.32902 210.841 0.865947L210.159 0.134053C205.286 4.67098 194.742 17.3552 191.512 31.8915L192.488 32.1085ZM202.5 44.5C197.049 44.5 194.328 42.407 193.059 39.8992C191.762 37.3384 191.919 34.2256 192.483 32.13L191.517 31.87C190.915 34.1077 190.721 37.4949 192.166 40.3508C193.639 43.2597 196.751 45.5 202.5 45.5V44.5ZM224.5 44.5H202.5V45.5H224.5V44.5ZM232.511 32.1062C233.479 36.5582 232.306 39.5117 230.511 41.4199C228.691 43.3545 226.182 44.266 224.432 44.5046L224.568 45.4954C226.485 45.234 229.226 44.2455 231.239 42.1051C233.277 39.9383 234.521 36.6418 233.489 31.8938L232.511 32.1062ZM216.107 0.808911C221.602 7.80306 225.079 12.7734 227.494 17.4182C229.904 22.0538 231.267 26.383 232.511 32.1062L233.489 31.8938C232.233 26.117 230.846 21.6962 228.381 16.9568C225.921 12.2266 222.398 7.19694 216.893 0.191089L216.107 0.808911ZM210.5 1H216.5V0H210.5V1ZM217.91 8.71327C217.166 7.65131 216.34 6.97739 215.472 6.61644C214.603 6.25506 213.728 6.22247 212.915 6.38465C211.31 6.70472 209.921 7.78529 209.128 8.66551L209.872 9.33448C210.579 8.54804 211.79 7.6286 213.11 7.36534C213.76 7.23586 214.429 7.26577 215.088 7.5398C215.748 7.81427 216.434 8.34869 217.09 9.28673L217.91 8.71327ZM219.606 11.02C219.054 10.2893 218.496 9.55052 217.91 8.71327L217.09 9.28673C217.688 10.1409 218.257 10.8934 218.808 11.6229L219.606 11.02ZM228.976 30.8465C226.894 24.394 225.239 20.3432 223.757 17.4485C222.271 14.5465 220.965 12.818 219.606 11.02L218.808 11.6229C220.16 13.4115 221.422 15.0831 222.867 17.9042C224.315 20.7326 225.951 24.7277 228.024 31.1535L228.976 30.8465ZM222.029 40.4991C225.599 40.2892 227.562 38.6483 228.503 36.6233C229.423 34.6448 229.337 32.3725 228.987 30.8855L228.013 31.1145C228.33 32.4609 228.393 34.4885 227.597 36.2017C226.822 37.8683 225.201 39.3108 221.971 39.5009L222.029 40.4991ZM204.5 40.5H222V39.5H204.5V40.5ZM197.538 30.8096C196.811 32.5744 196.634 34.0764 196.874 35.3446C197.115 36.6178 197.768 37.6095 198.619 38.3619C200.296 39.8468 202.752 40.4132 204.475 40.4994L204.525 39.5006C202.915 39.4201 200.72 38.8866 199.281 37.6131C198.573 36.9863 198.051 36.1843 197.857 35.1585C197.662 34.1277 197.789 32.8256 198.462 31.1904L197.538 30.8096ZM209.146 8.64644C205.889 11.9042 203.276 16.2956 201.335 20.4378C199.392 24.5838 198.106 28.5143 197.515 30.8787L198.485 31.1213C199.061 28.819 200.325 24.9495 202.24 20.8622C204.157 16.7711 206.711 12.4957 209.854 9.35355L209.146 8.64644Z" fill="#FCB347"/>
<path d="M155 40.5C159.4 19.7 178.5 5.5 187.5 1V10C187.5 6.4 186 7.5 181 10C171 18 166.5 25.3333 165.5 28C158 43 174 43 184.5 43V37H175.5L172.5 39C174 30 180.667 28.1667 182.5 28H187.5V45.5H155V40.5Z" fill="#FCB040"/>
<path fill-rule="evenodd" clip-rule="evenodd" d="M292.5 1C287.667 5.5 277.2 18.1 274 32.5C272.833 36.8333 273.3 45.5 284.5 45.5H306.5C310.167 45 317 41.7 315 32.5C312.5 21 309.5 15 298.5 1H292.5ZM291.5 9.5C293 7.83333 296.7 5.5 299.5 9.5C300.092 10.3457 300.655 11.0913 301.207 11.8215C303.917 15.408 306.346 18.6218 310.5 31.5C311.167 34.3333 310.8 40.1 304 40.5H286.5C283.167 40.3333 277.2 38.3 280 31.5C281.167 26.8333 285.1 15.9 291.5 9.5Z" fill="#FCB040"/>
<path d="M274 32.5L274.483 32.63L274.486 32.6193L274.488 32.6085L274 32.5ZM292.5 1V0.5H292.303L292.159 0.634053L292.5 1ZM306.5 45.5V46H306.534L306.568 45.9954L306.5 45.5ZM315 32.5L315.489 32.3938L315 32.5ZM298.5 1L298.893 0.691089L298.743 0.5H298.5V1ZM299.5 9.5L299.09 9.78673L299.09 9.78673L299.5 9.5ZM291.5 9.5L291.854 9.85355L291.863 9.84425L291.872 9.83448L291.5 9.5ZM301.207 11.8215L300.808 12.1229L301.207 11.8215ZM310.5 31.5L310.987 31.3855L310.982 31.3658L310.976 31.3465L310.5 31.5ZM304 40.5V41H304.015L304.029 40.9991L304 40.5ZM286.5 40.5L286.475 40.9994L286.488 41H286.5V40.5ZM280 31.5L280.462 31.6904L280.476 31.6567L280.485 31.6213L280 31.5ZM274.488 32.6085C277.658 18.3448 288.047 5.82902 292.841 1.36595L292.159 0.634053C287.286 5.17098 276.742 17.8552 273.512 32.3915L274.488 32.6085ZM284.5 45C279.049 45 276.328 42.907 275.059 40.3992C273.762 37.8384 273.919 34.7256 274.483 32.63L273.517 32.37C272.915 34.6077 272.721 37.9949 274.166 40.8508C275.639 43.7597 278.751 46 284.5 46V45ZM306.5 45H284.5V46H306.5V45ZM314.511 32.6062C315.479 37.0582 314.306 40.0117 312.511 41.9199C310.691 43.8545 308.182 44.766 306.432 45.0046L306.568 45.9954C308.485 45.734 311.226 44.7455 313.239 42.6051C315.278 40.4383 316.521 37.1418 315.489 32.3938L314.511 32.6062ZM298.107 1.30891C303.602 8.30306 307.079 13.2734 309.494 17.9182C311.904 22.5538 313.267 26.883 314.511 32.6062L315.489 32.3938C314.233 26.617 312.846 22.1962 310.381 17.4568C307.921 12.7266 304.398 7.69694 298.893 0.691089L298.107 1.30891ZM292.5 1.5H298.5V0.5H292.5V1.5ZM299.91 9.21327C299.166 8.15131 298.34 7.47739 297.472 7.11644C296.603 6.75506 295.728 6.72247 294.915 6.88465C293.31 7.20472 291.921 8.28529 291.128 9.16551L291.872 9.83448C292.579 9.04804 293.79 8.1286 295.11 7.86534C295.76 7.73586 296.429 7.76577 297.088 8.0398C297.748 8.31427 298.434 8.84869 299.09 9.78673L299.91 9.21327ZM301.606 11.52C301.054 10.7893 300.496 10.0505 299.91 9.21327L299.09 9.78673C299.688 10.6409 300.257 11.3934 300.808 12.1229L301.606 11.52ZM310.976 31.3465C308.894 24.894 307.239 20.8432 305.757 17.9485C304.271 15.0465 302.965 13.318 301.606 11.52L300.808 12.1229C302.16 13.9115 303.423 15.5831 304.867 18.4042C306.315 21.2326 307.951 25.2277 310.024 31.6535L310.976 31.3465ZM304.029 40.9991C307.599 40.7892 309.562 39.1483 310.503 37.1233C311.423 35.1448 311.337 32.8725 310.987 31.3855L310.013 31.6145C310.33 32.9609 310.393 34.9885 309.597 36.7017C308.822 38.3683 307.201 39.8108 303.971 40.0009L304.029 40.9991ZM286.5 41H304V40H286.5V41ZM279.538 31.3096C278.811 33.0744 278.634 34.5764 278.874 35.8446C279.116 37.1178 279.768 38.1095 280.619 38.8619C282.296 40.3468 284.752 40.9132 286.475 40.9994L286.525 40.0006C284.915 39.9201 282.72 39.3866 281.281 38.1131C280.573 37.4863 280.051 36.6843 279.857 35.6585C279.662 34.6277 279.789 33.3256 280.462 31.6904L279.538 31.3096ZM291.146 9.14644C287.889 12.4042 285.276 16.7956 283.335 20.9378C281.392 25.0838 280.106 29.0143 279.515 31.3787L280.485 31.6213C281.061 29.319 282.325 25.4495 284.24 21.3622C286.157 17.2711 288.711 12.9957 291.854 9.85355L291.146 9.14644Z" fill="#FCB347"/>
<path d="M237 41C241.4 20.2 260.5 6 269.5 1.5V10.5C269.5 6.9 268 8 263 10.5C253 18.5 248.5 25.8333 247.5 28.5C240 43.5 256 43.5 266.5 43.5V37.5H257.5L254.5 39.5C256 30.5 262.667 28.6667 264.5 28.5H269.5V46H237V41Z" fill="#FCB040"/>
<path d="M275 158L287 68C325.8 68.8 338.5 80.3333 340 86H335C327.4 78.8 305.833 78.6667 296 79.5V107L313.5 110V113L296 116V149.5C319.6 149.9 331.833 143.667 335 140.5H341C337 152.5 321 157.167 313.5 158H275Z" fill="#FCB347"/>
<path d="M223 67C187 94 177.5 128.5 171 157H174.5C183.3 123 203.5 100.833 212.5 94C214.9 103.2 216.833 139.833 217.5 157H226C228.4 129.4 247.333 103.5 256.5 94C262.9 113.2 265.167 144 265.5 157H268.5V67H265.5C251.9 71.8 233.5 101 226 115V67H223Z" fill="#FCB347"/>
<path d="M165 67H145V81H165V67Z" fill="#FCB347"/>
<path d="M165 85H145L151 157H159.5L165 85Z" fill="#FCB347"/>
<path d="M73 157V67H77.5C94.7 77.8 118.667 107.5 128.5 121C127.3 98.2 121.333 75.5 118.5 67H139.5V157H134.5C128.9 135.8 98.8333 107.5 84.5 96C78.5 112 78 143.333 78.5 157H73Z" fill="#FCB347"/>
<path fill-rule="evenodd" clip-rule="evenodd" d="M0 157C0 139.667 13.4 97.6 67 68V157H61L26 120C19.6667 125.667 6.8 141 6 157H0ZM61 146.5L36 109C39.1667 105.5 47.3 97.2 54.5 92L61 146.5Z" fill="#FCB347"/>
<path fill-rule="evenodd" clip-rule="evenodd" d="M363 18.2209C345 18.6209 337 22.2209 334 31.2209C337.2 58.4209 354.667 83.8875 363 93.2209H373.5C410.3 67.2209 421.167 41.0542 422 31.2209C424.8 24.0209 409.167 19.5542 401 18.2209C395.833 18.0542 381 17.8209 363 18.2209ZM359 33.2209C349.8 32.4209 344.833 38.5542 343.5 41.7209C353.5 38.7209 354 38.7209 360.5 38.7209L361.5 71.7209H364L365 38.7209C371 38.7209 377 40.2209 380 41.7209C376.4 35.7209 371.167 33.5542 369 33.2209H359ZM381.5 33.2209V71.7209H385C392.333 65.0542 407.5 49.1209 409.5 38.7209V33.2209H406.5V38.7209C404.5 45.7209 402.6 49.4209 385 64.2209V48.2209C385 46.8875 385 38.7209 383 33.2209H381.5Z" fill="#00A651"/>
</svg>
